<?xml version="1.0" encoding="iso-8859-1"?>
<!-- Generator: Adobe Illustrator 19.0.0, SVG Export Plug-In . SVG Version: 6.00 Build 0)  -->
<svg version="1.1" id="Layer_1" xmlns="http://www.w3.org/2000/svg" xmlns:xlink="http://www.w3.org/1999/xlink" x="0px" y="0px"
	 viewBox="0 0 512 512" style="enable-background:new 0 0 512 512" xml:space="preserve">
<circle style="fill:#CEE8FA;" cx="256.005" cy="157.986" r="86.128"/>
<path style="fill:#2D527C;" d="M256.001,258.12c-55.21,0-100.127-44.917-100.127-100.127S200.79,57.866,256.001,57.866
	s100.127,44.917,100.127,100.127S311.211,258.12,256.001,258.12z M256.001,85.875c-39.766,0-72.118,32.352-72.118,72.118
	s32.352,72.118,72.118,72.118s72.118-32.352,72.118-72.118S295.767,85.875,256.001,85.875z"/>
<path style="fill:#CEE8FA;" d="M306.76,351.74c-27.66,32.87-50.76,54.007-50.76,54.007s-23.341-21.459-51.192-54.696
	c-50.002,8.013-85.277,27.413-85.277,50.075c0,29.828,61.099,54.009,136.469,54.009s136.469-24.18,136.469-54.009
	c0-22.634-35.184-42.015-85.086-50.048C307.332,351.07,306.76,351.74,306.76,351.74z"/>
<g>
	<path style="fill:#2D527C;" d="M345.322,314.878c-2.692,0-5.413-0.774-7.813-2.392c-6.414-4.322-8.111-13.026-3.788-19.44
		c34.334-50.953,51.741-96.567,51.741-135.576c0-71.384-58.076-129.461-129.461-129.461c-27.774,0-54.244,8.66-76.551,25.046
		c-6.235,4.578-14.999,3.236-19.577-2.997c-4.579-6.233-3.238-14.999,2.997-19.577C190.017,10.54,222.22,0,256.001,0
		c86.83,0,157.471,70.641,157.471,157.471c0,44.686-19.017,95.566-56.523,151.226C354.244,312.712,349.823,314.878,345.322,314.878z
		"/>
	<path style="fill:#2D527C;" d="M436.727,387.122h-33.002c-9.488-23.514-43.178-41.672-94.118-49.87
		c-0.735-0.118-1.48-0.178-2.225-0.178c-6.523,0-10.104,4.201-11.338,5.649c-16.215,19.269-30.925,34.506-40.017,43.54
		c-31.296-31.26-129.489-136.695-129.489-228.79c0-20.293,4.557-39.714,13.547-57.726c3.454-6.92,0.643-15.331-6.277-18.784
		c-6.918-3.451-15.331-0.643-18.784,6.277c-10.945,21.93-16.495,45.56-16.495,70.233c0,65.612,41.62,134.349,80.748,184.48
		c-37.99,9.464-63.038,25.421-71.003,45.17H75.274c-7.735,0-14.005,6.27-14.005,14.005c0,7.735,6.27,14.005,14.005,14.005h33.073
		c6.084,14.758,21.886,27.663,46.001,37.206c24.002,9.499,54.713,15.255,87.648,16.53v29.127c0,7.735,6.27,14.005,14.005,14.005
		s14.005-6.27,14.005-14.005v-29.127c32.933-1.274,63.644-7.03,87.646-16.53c24.115-9.543,39.917-22.449,46.001-37.206h33.073
		c7.735,0,14.005-6.27,14.005-14.005C450.731,393.394,444.462,387.122,436.727,387.122z M347.346,426.295
		c-24.175,9.568-56.615,14.836-91.345,14.836s-67.17-5.269-91.345-14.836c-22.969-9.09-31.12-19.24-31.12-25.168
		c0-9.621,20.445-26.236,65.654-34.873c24.053,28.013,43.788,46.526,47.044,49.536c0.139,0.127,0.244,0.225,0.288,0.268
		c1.004,0.923,2.111,1.674,3.278,2.251c0.134,0.066,0.274,0.118,0.412,0.179c0.258,0.116,0.513,0.238,0.776,0.339
		c0.199,0.077,0.403,0.133,0.605,0.2c0.204,0.067,0.408,0.146,0.615,0.203c0.267,0.076,0.539,0.129,0.809,0.188
		c0.146,0.032,0.29,0.074,0.436,0.101c0.307,0.056,0.618,0.092,0.927,0.127c0.112,0.013,0.224,0.036,0.336,0.046
		c0.303,0.028,0.605,0.034,0.909,0.042c0.122,0.003,0.242,0.017,0.364,0.017c0.004,0,0.008,0,0.013,0
		c0.332,0,0.662-0.021,0.993-0.045c0.088-0.007,0.178-0.004,0.266-0.013c0.357-0.032,0.713-0.085,1.067-0.144
		c0.064-0.011,0.13-0.014,0.196-0.027c0.374-0.069,0.745-0.157,1.115-0.256c0.043-0.011,0.088-0.018,0.132-0.029
		c0.374-0.104,0.744-0.23,1.111-0.366c0.036-0.014,0.074-0.022,0.111-0.036c1.608-0.612,3.127-1.531,4.467-2.757
		c0.029-0.028,0.083-0.076,0.154-0.141c0.007-0.007,0.018-0.017,0.027-0.024c0.066-0.06,0.141-0.13,0.237-0.218
		c0.041-0.036,0.091-0.084,0.136-0.126c0.078-0.073,0.155-0.144,0.249-0.232c0.08-0.074,0.174-0.162,0.265-0.248
		c0.069-0.064,0.132-0.122,0.206-0.192c0.109-0.102,0.23-0.216,0.353-0.33c0.087-0.083,0.171-0.161,0.265-0.249
		c0.127-0.12,0.267-0.252,0.408-0.385c0.095-0.091,0.189-0.178,0.29-0.275c0.151-0.143,0.31-0.294,0.473-0.45
		c0.118-0.112,0.234-0.223,0.357-0.34c0.172-0.164,0.352-0.336,0.536-0.513c0.118-0.113,0.235-0.225,0.359-0.345
		c0.193-0.185,0.391-0.375,0.595-0.571c0.146-0.14,0.293-0.281,0.443-0.427c0.21-0.203,0.426-0.412,0.647-0.626
		c0.147-0.143,0.298-0.29,0.451-0.438c0.227-0.22,0.455-0.443,0.693-0.675c0.176-0.172,0.359-0.35,0.542-0.529
		c0.238-0.232,0.476-0.466,0.724-0.71c0.182-0.179,0.37-0.364,0.557-0.549c0.259-0.255,0.517-0.51,0.784-0.774
		c0.203-0.2,0.413-0.41,0.622-0.616c0.266-0.265,0.531-0.527,0.807-0.801c0.23-0.228,0.468-0.468,0.703-0.703
		c0.266-0.266,0.528-0.527,0.8-0.801c0.263-0.265,0.536-0.539,0.807-0.812c0.263-0.266,0.522-0.527,0.794-0.8
		c0.307-0.31,0.623-0.633,0.937-0.952c0.244-0.248,0.483-0.489,0.731-0.742c0.461-0.469,0.934-0.954,1.41-1.442
		c0.31-0.318,0.625-0.643,0.941-0.968c0.398-0.41,0.795-0.818,1.203-1.241c0.225-0.234,0.459-0.476,0.688-0.714
		c0.405-0.42,0.808-0.839,1.221-1.27c0.227-0.237,0.461-0.482,0.69-0.723c0.424-0.444,0.849-0.889,1.283-1.346
		c0.235-0.248,0.476-0.503,0.714-0.755c0.438-0.464,0.879-0.927,1.326-1.403c0.245-0.259,0.493-0.525,0.741-0.788
		c0.445-0.475,0.892-0.95,1.344-1.435c0.262-0.28,0.527-0.566,0.791-0.85c0.455-0.489,0.913-0.982,1.377-1.482
		c0.252-0.273,0.507-0.548,0.76-0.823c0.487-0.528,0.978-1.062,1.473-1.602c0.249-0.272,0.499-0.545,0.749-0.819
		c0.507-0.555,1.018-1.116,1.533-1.682c0.24-0.263,0.479-0.527,0.72-0.793c0.543-0.601,1.091-1.207,1.643-1.819
		c0.223-0.246,0.444-0.494,0.667-0.742c0.574-0.64,1.154-1.288,1.737-1.942c0.209-0.234,0.416-0.466,0.626-0.703
		c0.611-0.688,1.225-1.384,1.843-2.085c0.186-0.211,0.371-0.42,0.557-0.633c0.662-0.753,1.329-1.517,2-2.286
		c0.146-0.167,0.29-0.332,0.436-0.5c0.745-0.857,1.496-1.724,2.251-2.599c0.071-0.084,0.143-0.165,0.216-0.249
		c0.154-0.179,0.307-0.354,0.462-0.535c45.217,8.635,65.658,25.263,65.658,34.877C378.465,407.055,370.315,417.203,347.346,426.295z
		"/>
</g>
</svg>
